<svg width="190" height="150" viewBox="0 0 190 150" fill="none" xmlns="http://www.w3.org/2000/svg">
<g filter="url(#filter0_d_628_313)">
<rect width="172.438" height="138" rx="20" transform="matrix(1 0 -0.0907674 0.995872 13.5234 0)" fill="url(#paint0_linear_628_313)"/>
<path d="M80.023 46.0114C78.8738 46.0114 78.0005 45.633 77.4031 44.8762C76.8061 44.1157 76.567 43.083 76.686 41.7782C76.8056 40.4659 77.2312 39.4314 77.9627 38.6746C78.6981 37.9178 79.6403 37.5394 80.7896 37.5394C81.7105 37.5394 82.4664 37.8097 83.0572 38.3503C83.6485 38.8871 83.9487 39.5768 83.958 40.4193H82.5317C82.4748 39.9347 82.2779 39.5488 81.941 39.2618C81.6043 38.971 81.1815 38.8256 80.6724 38.8256C79.9836 38.8256 79.4148 39.0903 78.966 39.6197C78.5175 40.1453 78.2518 40.863 78.1689 41.7726C78.086 42.6822 78.2207 43.4018 78.573 43.9311C78.9253 44.4605 79.4477 44.7252 80.1403 44.7252C80.6531 44.7252 81.1032 44.5929 81.4904 44.3282C81.878 44.0597 82.141 43.7 82.2795 43.2489H83.7057C83.533 44.0765 83.109 44.7438 82.4339 45.2509C81.7588 45.7579 80.9552 46.0114 80.023 46.0114ZM91.6876 45.8101H90.2445L90.562 42.3262H86.6201L86.3026 45.8101H84.8539L85.5893 37.7407H87.0381L86.7338 41.0792H90.6757L90.98 37.7407H92.4231L91.6876 45.8101ZM98.69 45.8101L98.193 43.7466H95.2114L94.327 45.8101H92.8614L96.4719 37.7407H98.1003L100.245 45.8101H98.69ZM97.0673 39.2785L95.6522 42.6058H97.9601L97.1628 39.2785H97.0673ZM103.483 38.9374L103.237 41.6384H104.91C105.371 41.6384 105.737 41.521 106.009 41.2861C106.285 41.0512 106.443 40.7194 106.482 40.2907C106.52 39.8694 106.417 39.5395 106.173 39.3009C105.933 39.0586 105.583 38.9374 105.123 38.9374H103.483ZM103.132 42.7848L102.857 45.8101H101.408L102.144 37.7407H105.434C106.284 37.7407 106.937 37.9681 107.393 38.423C107.85 38.874 108.043 39.4873 107.972 40.2627C107.924 40.7996 107.745 41.2749 107.438 41.6887C107.131 42.0988 106.73 42.3896 106.236 42.5611L107.708 45.8101H106.052L104.738 42.7848H103.132ZM112.459 45.8101H111.01L111.632 38.9878H109.139L109.253 37.7407H115.693L115.58 38.9878H113.081L112.459 45.8101Z" fill="black"/>
<path d="M84.5458 67.8768H83.5058C83.1176 67.8768 82.8918 67.6215 82.9244 67.2641C82.9663 66.8046 83.3018 66.4983 83.7852 66.4983H84.9571L85.606 64.2809H84.5C84.1118 64.2809 83.8861 64.0256 83.9186 63.6682C83.9605 63.2087 84.3034 62.9023 84.7795 62.9023H86.0026L86.6648 60.6996C86.7926 60.2619 87.0622 60.0358 87.4797 60.0358C87.8752 60.0358 88.1036 60.2619 88.0691 60.6412C88.0624 60.7141 88.0384 60.8163 88.0172 60.8892L87.4308 62.9023H89.5402L90.1944 60.7068C90.3229 60.2619 90.5925 60.0358 91.01 60.0358C91.4055 60.0358 91.6339 60.2619 91.5993 60.6412C91.5927 60.7141 91.576 60.8163 91.5474 60.8892L90.9538 62.9023H92.0451C92.4333 62.9023 92.653 63.143 92.6198 63.5077C92.5779 63.9673 92.2424 64.2736 91.7663 64.2736H90.5505L89.8943 66.491H91.0369C91.425 66.491 91.6441 66.739 91.6109 67.1037C91.569 67.5632 91.2328 67.8768 90.7567 67.8768H89.497L88.8108 70.1817C88.6824 70.6267 88.4127 70.8528 87.9953 70.8528C87.5998 70.8528 87.3713 70.6267 87.4059 70.2474C87.4126 70.1744 87.4292 70.0723 87.4578 69.9994L88.0834 67.8768H85.9594L85.2792 70.1963C85.1508 70.6413 84.8825 70.8528 84.465 70.8528C84.0695 70.8528 83.8411 70.6267 83.8756 70.2474C83.8823 70.1744 83.8989 70.0723 83.9275 69.9994L84.5458 67.8768ZM86.2675 66.5858H88.516L89.2328 64.1861H86.9769L86.2675 66.5858ZM98.8469 78.917C97.9314 78.917 97.3542 78.2849 97.4406 77.3366L98.6406 64.171H98.5796L95.5558 66.1404C95.2307 66.3592 94.9788 66.4443 94.637 66.4443C93.9778 66.4443 93.545 65.9702 93.6081 65.2773C93.6524 64.791 93.881 64.4263 94.4391 64.0616L98.2696 61.5452C99.1007 60.9981 99.5989 60.8887 100.258 60.8887C101.369 60.8887 101.979 61.5573 101.881 62.6393L100.541 77.3366C100.455 78.2849 99.7624 78.917 98.8469 78.917Z" fill="black"/>
<path d="M63.6188 104.822C62.1491 104.822 61.0319 104.328 60.2674 103.341C59.5029 102.354 59.1982 101.009 59.3533 99.3075C59.5089 97.6007 60.0564 96.2538 60.996 95.2666C61.9405 94.2795 63.1476 93.786 64.6173 93.786C65.7794 93.786 66.7372 94.1264 67.4905 94.8071C68.2492 95.483 68.6455 96.3583 68.6794 97.433H67.0461C66.9488 96.7862 66.6687 96.2708 66.2056 95.8866C65.7475 95.5025 65.1717 95.3104 64.4784 95.3104C63.5311 95.3104 62.7463 95.6702 62.1241 96.3899C61.5072 97.1047 61.1427 98.0773 61.0305 99.3075C60.9189 100.533 61.1061 101.505 61.5923 102.225C62.0838 102.94 62.8056 103.297 63.7577 103.297C64.456 103.297 65.0676 103.122 65.5927 102.772C66.1227 102.422 66.4879 101.95 66.6885 101.357H68.3218C68.0804 102.398 67.5304 103.237 66.6715 103.874C65.8131 104.506 64.7955 104.822 63.6188 104.822ZM72.4226 103.378C73.0134 103.378 73.5192 103.212 73.94 102.882C74.3656 102.551 74.601 102.138 74.6462 101.642L74.7067 100.978L72.7472 101.102C72.1972 101.136 71.7842 101.248 71.5081 101.437C71.232 101.627 71.078 101.897 71.0461 102.247C71.0142 102.597 71.1257 102.874 71.3805 103.079C71.6358 103.278 71.9831 103.378 72.4226 103.378ZM71.8994 104.698C71.1182 104.698 70.4982 104.481 70.0396 104.049C69.5864 103.611 69.3923 103.035 69.4575 102.32C69.5222 101.61 69.8293 101.053 70.3787 100.65C70.9287 100.241 71.6824 100.008 72.6398 99.9494L74.8118 99.8254L74.8743 99.1398C74.9128 98.7167 74.8031 98.3933 74.5452 98.1697C74.2877 97.9411 73.8928 97.8268 73.3606 97.8268C72.9212 97.8268 72.5479 97.9046 72.2407 98.0602C71.9389 98.211 71.7312 98.4274 71.6176 98.7094H70.0941C70.2343 98.0286 70.6182 97.4864 71.2458 97.0828C71.8787 96.6744 72.6493 96.4702 73.5575 96.4702C74.5536 96.4702 75.3012 96.706 75.8002 97.1777C76.3045 97.6445 76.5183 98.2985 76.4416 99.1398L75.947 104.566H74.4309L74.5326 103.45H74.4081C74.1325 103.849 73.7748 104.158 73.3349 104.377C72.9004 104.591 72.4219 104.698 71.8994 104.698ZM79.349 94.6467H80.9237L80.7402 96.6598H82.4687L82.3484 97.98H80.6199L80.2476 102.065C80.2099 102.478 80.2726 102.782 80.4355 102.976C80.5989 103.166 80.8759 103.261 81.2665 103.261C81.4228 103.261 81.6241 103.249 81.8704 103.224L81.7514 104.53C81.4341 104.583 81.146 104.61 80.8872 104.61C80.0132 104.61 79.4008 104.445 79.0501 104.114C78.7042 103.784 78.5663 103.234 78.6363 102.466L79.0452 97.98H77.7781L77.8984 96.6598H79.1655L79.349 94.6467ZM88.4512 98.3666C88.1337 97.9922 87.6845 97.805 87.1034 97.805C86.5224 97.805 86.0268 97.9922 85.6167 98.3666C85.2066 98.741 84.9512 99.2394 84.8505 99.8619H88.8789C88.9165 99.2346 88.7739 98.7362 88.4512 98.3666ZM88.6382 102.422H90.1543C89.9085 103.137 89.4618 103.698 88.8142 104.107C88.1715 104.515 87.3961 104.72 86.4879 104.72C85.3453 104.72 84.4776 104.355 83.8849 103.626C83.2976 102.891 83.0617 101.89 83.1774 100.62C83.2931 99.3513 83.7171 98.3423 84.4494 97.5934C85.1817 96.8446 86.1094 96.4702 87.2324 96.4702C88.3408 96.4702 89.1776 96.8251 89.7428 97.5351C90.3128 98.245 90.5409 99.2248 90.427 100.475L90.3772 101.022H84.7448L84.7369 101.109C84.6974 101.809 84.8496 102.364 85.1932 102.772C85.5368 103.181 86.0236 103.385 86.6535 103.385C87.6154 103.385 88.2769 103.064 88.6382 102.422ZM93.6209 102.4C93.9499 102.862 94.4489 103.093 95.1178 103.093C95.7868 103.093 96.3354 102.86 96.7637 102.393C97.192 101.926 97.4425 101.294 97.5152 100.496C97.5874 99.7038 97.4519 99.0741 97.1087 98.6073C96.766 98.1356 96.2601 97.8998 95.5912 97.8998C94.9222 97.8998 94.3809 98.1332 93.9673 98.6C93.5541 99.0619 93.3109 99.6941 93.2378 100.496C93.1647 101.299 93.2924 101.933 93.6209 102.4ZM94.729 107.601C93.7426 107.601 92.9605 107.397 92.3825 106.988C91.804 106.584 91.5043 106.042 91.4834 105.362H93.0947C93.1364 105.653 93.3107 105.884 93.6175 106.054C93.9291 106.225 94.3461 106.31 94.8686 106.31C95.5229 106.31 96.0467 106.161 96.4399 105.865C96.8376 105.573 97.0604 105.165 97.1083 104.639L97.2472 103.115H97.13C96.8517 103.543 96.4896 103.874 96.0435 104.107C95.5979 104.336 95.0992 104.45 94.5474 104.45C93.5367 104.45 92.766 104.092 92.2355 103.378C91.7102 102.658 91.5021 101.7 91.6112 100.504C91.722 99.2881 92.1085 98.3155 92.7706 97.5861C93.4328 96.8567 94.2717 96.492 95.2874 96.492C95.8342 96.492 96.3208 96.6185 96.7469 96.8713C97.1735 97.1193 97.4794 97.4597 97.6646 97.8925H97.7891L97.9048 96.6233H99.4136L98.6836 104.632C98.6007 105.541 98.2029 106.264 97.4901 106.798C96.7773 107.333 95.8569 107.601 94.729 107.601ZM104.03 104.72C102.858 104.72 101.971 104.353 101.369 103.618C100.767 102.884 100.525 101.875 100.642 100.591C100.758 99.3124 101.184 98.3058 101.92 97.5715C102.661 96.8373 103.615 96.4702 104.782 96.4702C105.944 96.4702 106.826 96.8373 107.428 97.5715C108.035 98.3058 108.28 99.3124 108.164 100.591C108.047 101.875 107.62 102.884 106.884 103.618C106.148 104.353 105.197 104.72 104.03 104.72ZM104.157 103.327C104.836 103.327 105.382 103.088 105.797 102.612C106.217 102.13 106.466 101.457 106.545 100.591C106.623 99.7306 106.496 99.0619 106.164 98.5854C105.837 98.104 105.334 97.8633 104.655 97.8633C103.971 97.8633 103.422 98.1016 103.008 98.5781C102.593 99.0547 102.346 99.7257 102.268 100.591C102.188 101.462 102.312 102.135 102.64 102.612C102.968 103.088 103.473 103.327 104.157 103.327ZM109.398 104.566L110.122 96.6233H111.638L111.527 97.8414H111.644C111.793 97.4475 112.078 97.1242 112.502 96.8713C112.93 96.6185 113.403 96.492 113.921 96.492C114.219 96.492 114.451 96.5139 114.618 96.5577L114.477 98.104C114.292 98.0408 114.002 98.0092 113.607 98.0092C113.006 98.0092 112.5 98.1818 112.087 98.5271C111.68 98.8723 111.451 99.3221 111.4 99.8764L110.973 104.566H109.398ZM115.676 107.448C115.403 107.448 115.187 107.435 115.028 107.411L115.151 106.062C115.261 106.081 115.431 106.091 115.661 106.091C116.037 106.091 116.345 106.006 116.585 105.836C116.825 105.665 117.032 105.381 117.205 104.982L117.357 104.596L115.198 96.6233H116.912L118.336 102.933H118.461L121.028 96.6233H122.698L118.971 104.895C118.541 105.858 118.087 106.524 117.609 106.893C117.136 107.263 116.492 107.448 115.676 107.448Z" fill="black"/>
</g>
<defs>
<filter id="filter0_d_628_313" x="0.453125" y="0" width="189.508" height="149.406" filterUnits="userSpaceOnUse" color-interpolation-filters="sRGB">
<feFlood flood-opacity="0" result="BackgroundImageFix"/>
<feColorMatrix in="SourceAlpha" type="matrix" values="0 0 0 0 0 0 0 0 0 0 0 0 0 0 0 0 0 0 127 0" result="hardAlpha"/>
<feOffset dx="4" dy="6"/>
<feComposite in2="hardAlpha" operator="out"/>
<feColorMatrix type="matrix" values="0 0 0 0 0.0783333 0 0 0 0 0.538542 0 0 0 0 0.783333 0 0 0 1 0"/>
<feBlend mode="normal" in2="BackgroundImageFix" result="effect1_dropShadow_628_313"/>
<feBlend mode="normal" in="SourceGraphic" in2="effect1_dropShadow_628_313" result="shape"/>
</filter>
<linearGradient id="paint0_linear_628_313" x1="86.2191" y1="0" x2="86.2191" y2="138" gradientUnits="userSpaceOnUse">
<stop stop-color="#007ADF"/>
<stop offset="1" stop-color="#00ECBC"/>
</linearGradient>
</defs>
</svg>
