<svg width="221" height="123" viewBox="0 0 221 123" fill="none" xmlns="http://www.w3.org/2000/svg">
<g filter="url(#filter0_d_628_295)">
<rect width="196.915" height="113.999" rx="20" transform="matrix(1 0 -0.148264 0.988948 17.6211 0)" fill="url(#paint0_linear_628_295)"/>
<path d="M95.9258 30.8568C94.7766 30.8568 93.9251 30.481 93.3714 29.7295C92.8183 28.9743 92.6389 27.9488 92.8332 26.653C93.0285 25.3499 93.5138 24.3225 94.2891 23.571C95.0681 22.8195 96.0323 22.4437 97.1815 22.4437C98.1024 22.4437 98.8427 22.7121 99.4023 23.2489C99.9626 23.782 100.223 24.4669 100.184 25.3036H98.7574C98.7285 24.8223 98.5538 24.4392 98.2334 24.1541C97.9136 23.8653 97.4991 23.721 96.99 23.721C96.3012 23.721 95.7171 23.9838 95.2378 24.5095C94.759 25.0315 94.4518 25.7442 94.3164 26.6475C94.181 27.5508 94.2741 28.2653 94.5959 28.791C94.9176 29.3167 95.4248 29.5796 96.1173 29.5796C96.6302 29.5796 97.0879 29.4481 97.4904 29.1853C97.8935 28.9187 98.1773 28.5615 98.3417 28.1135H99.768C99.5475 28.9354 99.085 29.5981 98.3806 30.1016C97.6762 30.605 96.858 30.8568 95.9258 30.8568ZM107.602 30.6569H106.159L106.678 27.1972H102.736L102.217 30.6569H100.768L101.97 22.6436H103.418L102.921 25.9589H106.863L107.36 22.6436H108.803L107.602 30.6569ZM114.604 30.6569L114.227 28.6077H111.245L110.241 30.6569H108.776L112.852 22.6436H114.481L116.16 30.6569H114.604ZM113.359 24.1708L111.752 27.4749H114.06L113.454 24.1708H113.359ZM119.794 23.832L119.392 26.5142H121.066C121.526 26.5142 121.899 26.3976 122.185 26.1644C122.474 25.9311 122.651 25.6016 122.715 25.1759C122.778 24.7575 122.694 24.4299 122.464 24.193C122.238 23.9523 121.894 23.832 121.434 23.832H119.794ZM119.222 27.6526L118.771 30.6569H117.322L118.524 22.6436H121.814C122.664 22.6436 123.304 22.8695 123.734 23.3211C124.165 23.7691 124.323 24.3781 124.207 25.1481C124.127 25.6812 123.922 26.1532 123.591 26.5642C123.26 26.9714 122.842 27.2602 122.338 27.4305L123.623 30.6569H121.966L120.828 27.6526H119.222ZM128.373 30.6569H126.925L127.94 23.882H125.447L125.633 22.6436H132.074L131.888 23.882H129.389L128.373 30.6569Z" fill="white"/>
<path d="M99.1877 52.5701H98.1476C97.7595 52.5701 97.5484 52.3166 97.6017 51.9617C97.6701 51.5054 98.0233 51.2012 98.5067 51.2012H99.6786L100.455 48.9992H99.3495C98.9613 48.9992 98.7503 48.7457 98.8035 48.3908C98.8719 47.9345 99.2325 47.6302 99.7086 47.6302H100.932L101.721 45.4428C101.874 45.0082 102.157 44.7836 102.574 44.7836C102.97 44.7836 103.185 45.0082 103.129 45.3848C103.118 45.4573 103.088 45.5587 103.062 45.6311L102.36 47.6302H104.469L105.25 45.45C105.404 45.0082 105.687 44.7836 106.105 44.7836C106.5 44.7836 106.715 45.0082 106.659 45.3848C106.648 45.4573 106.626 45.5587 106.593 45.6311L105.883 47.6302H106.974C107.362 47.6302 107.568 47.8693 107.514 48.2314C107.446 48.6878 107.092 48.992 106.616 48.992H105.4L104.616 51.1939H105.759C106.147 51.1939 106.352 51.4402 106.297 51.8024C106.229 52.2587 105.875 52.5701 105.399 52.5701H104.139L103.32 54.859C103.165 55.3009 102.883 55.5254 102.465 55.5254C102.07 55.5254 101.854 55.3009 101.911 54.9242C101.922 54.8518 101.944 54.7504 101.977 54.6779L102.725 52.5701H100.601L99.7872 54.8735C99.6331 55.3153 99.3525 55.5254 98.9351 55.5254C98.5395 55.5254 98.3242 55.3009 98.3807 54.9242C98.3915 54.8518 98.414 54.7504 98.4469 54.6779L99.1877 52.5701ZM100.984 51.2881H103.232L104.088 48.9051H101.832L100.984 51.2881ZM112.851 63.5336C111.936 63.5336 111.395 62.9058 111.536 61.9642L113.496 48.8901H113.435L110.298 50.8458C109.96 51.0631 109.703 51.1476 109.362 51.1476C108.702 51.1476 108.297 50.6768 108.4 49.9886C108.472 49.5058 108.722 49.1436 109.301 48.7814L113.277 46.2825C114.14 45.7393 114.644 45.6306 115.303 45.6306C116.414 45.6306 116.986 46.2946 116.825 47.369L114.637 61.9642C114.496 62.9058 113.767 63.5336 112.851 63.5336Z" fill="white"/>
<path d="M84.9616 89.2511C83.526 89.2511 82.4618 88.761 81.769 87.7807C81.081 86.8004 80.8633 85.4677 81.1159 83.7824C81.3686 82.0971 81.9859 80.7644 82.9678 79.7841C83.9505 78.799 85.1596 78.3065 86.5951 78.3065C87.7084 78.3065 88.6135 78.6204 89.3104 79.2481C90.0073 79.8759 90.3582 80.6944 90.3631 81.7036H89.0228C88.9484 81.0276 88.6768 80.494 88.2081 80.1028C87.7401 79.7069 87.1424 79.5089 86.4148 79.5089C85.3992 79.5089 84.536 79.8928 83.8252 80.6606C83.1193 81.4284 82.6678 82.469 82.4709 83.7824C82.274 85.0959 82.4158 86.1365 82.8964 86.9043C83.3778 87.6672 84.1262 88.0487 85.1419 88.0487C85.8792 88.0487 86.5351 87.8749 87.1097 87.5272C87.6899 87.1747 88.1082 86.6966 88.3647 86.093H89.7051C89.3852 87.054 88.794 87.8217 87.9315 88.3964C87.0746 88.9662 86.0846 89.2511 84.9616 89.2511ZM93.5943 88.0487C94.2437 88.0487 94.8087 87.8628 95.2892 87.491C95.7747 87.1191 96.0594 86.6532 96.1434 86.093L96.2509 85.3759L94.1062 85.5136C93.5047 85.5522 93.0492 85.6753 92.7398 85.883C92.4303 86.0906 92.2459 86.3924 92.1866 86.7884C92.1279 87.1795 92.2305 87.4886 92.4944 87.7155C92.7589 87.9376 93.1256 88.0487 93.5943 88.0487ZM93.196 89.1424C92.4196 89.1424 91.8114 88.9324 91.3715 88.5123C90.9371 88.0873 90.7728 87.5224 90.8785 86.8173C90.9828 86.122 91.3136 85.5763 91.871 85.1804C92.4284 84.7844 93.1725 84.5599 94.1033 84.5067L96.4018 84.3691L96.5082 83.6593C96.5806 83.1764 96.4846 82.807 96.2203 82.5511C95.9559 82.2951 95.5308 82.1672 94.9448 82.1672C94.4712 82.1672 94.0654 82.2517 93.7276 82.4207C93.3898 82.5897 93.1537 82.8287 93.0195 83.1378H91.7451C91.9215 82.5148 92.3215 82.0126 92.9451 81.6312C93.5736 81.2497 94.3102 81.0589 95.1549 81.0589C96.1119 81.0589 96.8173 81.2883 97.271 81.7471C97.7247 82.2058 97.8903 82.8432 97.768 83.6593L96.9666 89.0048H95.7654L95.9381 87.8531H95.8209C95.5047 88.2684 95.12 88.5871 94.6668 88.8092C94.2136 89.0314 93.7233 89.1424 93.196 89.1424ZM99.6629 83.3333C99.7599 82.6863 100.122 82.1454 100.748 81.7108C101.375 81.2762 102.108 81.0589 102.948 81.0589C103.773 81.0589 104.426 81.2473 104.907 81.6239C105.388 82.0006 105.621 82.51 105.608 83.1523H104.363C104.323 82.8335 104.165 82.5824 103.89 82.399C103.62 82.2106 103.251 82.1165 102.782 82.1165C102.309 82.1165 101.894 82.2251 101.54 82.4424C101.19 82.6597 100.989 82.9398 100.938 83.2826C100.898 83.5482 100.974 83.7703 101.167 83.949C101.366 84.1229 101.691 84.2653 102.143 84.3764L103.316 84.6661C104.041 84.8448 104.556 85.1031 104.862 85.4411C105.173 85.7791 105.286 86.2258 105.203 86.7811C105.1 87.4717 104.714 88.039 104.047 88.4833C103.381 88.9227 102.593 89.1424 101.685 89.1424C100.806 89.1424 100.115 88.9493 99.6112 88.563C99.1076 88.1767 98.8702 87.66 98.8988 87.0129H100.195C100.252 87.3509 100.425 87.6165 100.713 87.8097C101.002 87.998 101.393 88.0922 101.886 88.0922C102.419 88.0922 102.873 87.9787 103.248 87.7517C103.624 87.5248 103.839 87.2326 103.893 86.8753C103.972 86.3441 103.61 85.9771 102.805 85.7743L101.499 85.4484C100.779 85.2697 100.27 85.0138 99.9736 84.6806C99.6824 84.3426 99.5789 83.8935 99.6629 83.3333ZM106.577 89.0048L107.747 81.1966H109.007L107.836 89.0048H106.577ZM109.275 79.3568C109.079 79.5258 108.859 79.6103 108.615 79.6103C108.371 79.6103 108.176 79.5258 108.03 79.3568C107.885 79.1829 107.831 78.9777 107.866 78.7411C107.902 78.5045 108.018 78.3017 108.214 78.1327C108.411 77.9588 108.631 77.8719 108.875 77.8719C109.12 77.8719 109.314 77.9588 109.459 78.1327C109.605 78.3017 109.66 78.5045 109.624 78.7411C109.589 78.9777 109.472 79.1829 109.275 79.3568ZM109.939 89.0048L111.109 81.1966H112.31L112.126 82.4279H112.243C112.8 81.5153 113.659 81.0589 114.821 81.0589C115.705 81.0589 116.349 81.31 116.752 81.8122C117.156 82.3096 117.288 83.0219 117.149 83.949L116.391 89.0048H115.132L115.844 84.2532C115.949 83.553 115.873 83.0339 115.616 82.6959C115.365 82.3531 114.924 82.1817 114.294 82.1817C113.659 82.1817 113.124 82.3796 112.689 82.7756C112.259 83.1667 111.993 83.7027 111.891 84.3836L111.198 89.0048H109.939ZM124.443 88.0632C123.686 88.7827 122.745 89.1424 121.622 89.1424C120.499 89.1424 119.665 88.7827 119.118 88.0632C118.577 87.3389 118.401 86.3514 118.588 85.1007C118.776 83.8452 119.249 82.8577 120.006 82.1382C120.764 81.4187 121.706 81.0589 122.834 81.0589C123.962 81.0589 124.797 81.4187 125.339 82.1382C125.88 82.8577 126.057 83.8452 125.868 85.1007C125.681 86.3514 125.206 87.3389 124.443 88.0632ZM120.176 87.2592C120.505 87.7662 121.044 88.0197 121.791 88.0197C122.538 88.0197 123.152 87.7662 123.633 87.2592C124.115 86.7473 124.426 86.0278 124.565 85.1007C124.704 84.1736 124.609 83.4565 124.279 82.9494C123.951 82.4376 123.413 82.1817 122.666 82.1817C121.919 82.1817 121.304 82.4376 120.822 82.9494C120.341 83.4565 120.031 84.1736 119.892 85.1007C119.753 86.0278 119.848 86.7473 120.176 87.2592Z" fill="white"/>
</g>
<defs>
<filter id="filter0_d_628_295" x="0.71875" y="0" width="219.816" height="122.739" filterUnits="userSpaceOnUse" color-interpolation-filters="sRGB">
<feFlood flood-opacity="0" result="BackgroundImageFix"/>
<feColorMatrix in="SourceAlpha" type="matrix" values="0 0 0 0 0 0 0 0 0 0 0 0 0 0 0 0 0 0 127 0" result="hardAlpha"/>
<feOffset dx="6" dy="10"/>
<feComposite in2="hardAlpha" operator="out"/>
<feColorMatrix type="matrix" values="0 0 0 0 0.533377 0 0 0 0 0.0575 0 0 0 0 0.6 0 0 0 1 0"/>
<feBlend mode="normal" in2="BackgroundImageFix" result="effect1_dropShadow_628_295"/>
<feBlend mode="normal" in="SourceGraphic" in2="effect1_dropShadow_628_295" result="shape"/>
</filter>
<linearGradient id="paint0_linear_628_295" x1="16.0829" y1="2.86527e-06" x2="188.765" y2="84.86" gradientUnits="userSpaceOnUse">
<stop stop-color="#00DBDE"/>
<stop offset="1" stop-color="#FC00FF"/>
</linearGradient>
</defs>
</svg>
