<svg width="728" height="417" viewBox="0 0 728 417" fill="none" xmlns="http://www.w3.org/2000/svg">
<foreignObject x="-725.998" y="-13.4644" width="1467.83" height="445.238"><div xmlns="http://www.w3.org/1999/xhtml" style="backdrop-filter:blur(7.5px);clip-path:url(#bgblur_0_628_245_clip_path);height:100%;width:100%"></div></foreignObject><path data-figma-bg-blur-radius="15" d="M712.45 146.098L726.828 166.86V416.773H-710.999V166.86L-696.621 187.621L-682.242 208.055L-667.864 227.84L-653.486 246.663L-639.107 264.227L-624.729 280.255L-610.351 294.496L-595.973 306.723L-581.594 316.745L-567.216 324.403L-552.838 329.576L-538.459 332.184H-524.081L-509.703 329.576L-495.325 324.403L-480.946 316.745L-466.568 306.723L-452.19 294.496L-437.812 280.255L-423.433 264.227L-409.055 246.663L-394.677 227.84L-380.299 208.055L-365.92 187.621L-351.542 166.86L-337.164 146.098L-322.786 125.664L-308.407 105.879L-294.029 87.0567L-279.651 69.4925L-265.272 53.4638L-250.894 39.2234L-236.516 26.996L-222.138 16.9742L-207.759 9.3163L-193.381 4.1429L-179.003 1.53564H-164.625L-150.246 4.1429L-135.868 9.3163L-121.49 16.9742L-107.112 26.996L-92.7332 39.2234L-78.355 53.4638L-63.9767 69.4925L-49.5984 87.0567L-35.2202 105.879L-20.8419 125.664L-6.46362 146.098L7.91461 166.86L22.2928 187.621L36.6712 208.055L51.0494 227.84L65.4277 246.663L79.806 264.227L94.1843 280.255L108.563 294.496L122.941 306.723L137.319 316.745L151.697 324.403L166.076 329.576L180.454 332.184H194.832L209.21 329.576L223.589 324.403L237.967 316.745L252.345 306.723L266.723 294.496L281.102 280.255L295.48 264.227L309.858 246.663L324.237 227.84L338.615 208.055L352.993 187.621L367.371 166.86L381.75 146.098L396.128 125.664L410.506 105.879L424.884 87.0567L439.263 69.4925L453.641 53.4638L468.019 39.2234L482.398 26.996L496.776 16.9742L511.154 9.3163L525.532 4.1429L539.911 1.53564H554.289L568.667 4.1429L583.045 9.3163L597.424 16.9742L611.802 26.996L626.18 39.2234L640.559 53.4638L654.937 69.4925L669.315 87.0567L683.693 105.879L698.072 125.664L712.45 146.098Z" fill="url(#paint0_linear_628_245)" fill-opacity="0.1"/>
<path d="M726.828 166.86L712.45 146.098L698.072 125.664L683.693 105.879L669.315 87.0567L654.937 69.4925L640.559 53.4638L626.18 39.2234L611.802 26.996L597.424 16.9742L583.045 9.3163L568.667 4.1429L554.289 1.53564H539.911L525.532 4.1429L511.154 9.3163L496.776 16.9742L482.398 26.996L468.019 39.2234L453.641 53.4638L439.263 69.4925L424.884 87.0567L410.506 105.879L396.128 125.664L381.75 146.098L367.371 166.86L352.993 187.621L338.615 208.055L324.237 227.84L309.858 246.663L295.48 264.227L281.102 280.255L266.724 294.496L252.345 306.723L237.967 316.745L223.589 324.403L209.21 329.576L194.832 332.184H180.454L166.076 329.576L151.697 324.403L137.319 316.745L122.941 306.723L108.563 294.496L94.1843 280.255L79.806 264.227L65.4277 246.663L51.0495 227.84L36.6712 208.055L22.2929 187.621L7.91466 166.86L-6.46359 146.098L-20.8418 125.664L-35.2202 105.879L-49.5984 87.0567L-63.9767 69.4925L-78.3549 53.4638L-92.7332 39.2234L-107.112 26.996L-121.49 16.9742L-135.868 9.3163L-150.246 4.1429L-164.625 1.53564L-179.003 1.53564L-193.381 4.1429L-207.759 9.3163L-222.138 16.9742L-236.516 26.996L-250.894 39.2234L-265.272 53.4638L-279.651 69.4925L-294.029 87.0567L-308.407 105.879L-322.786 125.664L-337.164 146.098L-351.542 166.86L-365.92 187.621L-380.299 208.055L-394.677 227.84L-409.055 246.663L-423.433 264.227L-437.812 280.255L-452.19 294.496L-466.568 306.723L-480.946 316.745L-495.325 324.403L-509.703 329.576L-524.081 332.184H-538.46L-552.838 329.576L-567.216 324.403L-581.594 316.745L-595.973 306.723L-610.351 294.496L-624.729 280.255L-639.107 264.227L-653.486 246.663L-667.864 227.84L-682.242 208.055L-696.621 187.621L-710.999 166.86" stroke="url(#paint1_linear_628_245)" stroke-width="2"/>
<defs>
<clipPath id="bgblur_0_628_245_clip_path" transform="translate(725.998 13.4644)"><path d="M712.45 146.098L726.828 166.86V416.773H-710.999V166.86L-696.621 187.621L-682.242 208.055L-667.864 227.84L-653.486 246.663L-639.107 264.227L-624.729 280.255L-610.351 294.496L-595.973 306.723L-581.594 316.745L-567.216 324.403L-552.838 329.576L-538.459 332.184H-524.081L-509.703 329.576L-495.325 324.403L-480.946 316.745L-466.568 306.723L-452.19 294.496L-437.812 280.255L-423.433 264.227L-409.055 246.663L-394.677 227.84L-380.299 208.055L-365.92 187.621L-351.542 166.86L-337.164 146.098L-322.786 125.664L-308.407 105.879L-294.029 87.0567L-279.651 69.4925L-265.272 53.4638L-250.894 39.2234L-236.516 26.996L-222.138 16.9742L-207.759 9.3163L-193.381 4.1429L-179.003 1.53564H-164.625L-150.246 4.1429L-135.868 9.3163L-121.49 16.9742L-107.112 26.996L-92.7332 39.2234L-78.355 53.4638L-63.9767 69.4925L-49.5984 87.0567L-35.2202 105.879L-20.8419 125.664L-6.46362 146.098L7.91461 166.86L22.2928 187.621L36.6712 208.055L51.0494 227.84L65.4277 246.663L79.806 264.227L94.1843 280.255L108.563 294.496L122.941 306.723L137.319 316.745L151.697 324.403L166.076 329.576L180.454 332.184H194.832L209.21 329.576L223.589 324.403L237.967 316.745L252.345 306.723L266.723 294.496L281.102 280.255L295.48 264.227L309.858 246.663L324.237 227.84L338.615 208.055L352.993 187.621L367.371 166.86L381.75 146.098L396.128 125.664L410.506 105.879L424.884 87.0567L439.263 69.4925L453.641 53.4638L468.019 39.2234L482.398 26.996L496.776 16.9742L511.154 9.3163L525.532 4.1429L539.911 1.53564H554.289L568.667 4.1429L583.045 9.3163L597.424 16.9742L611.802 26.996L626.18 39.2234L640.559 53.4638L654.937 69.4925L669.315 87.0567L683.693 105.879L698.072 125.664L712.45 146.098Z"/>
</clipPath><linearGradient id="paint0_linear_628_245" x1="7.91467" y1="1.53564" x2="7.91467" y2="416.773" gradientUnits="userSpaceOnUse">
<stop stop-color="white" stop-opacity="0.59"/>
<stop offset="0.627552" stop-color="white" stop-opacity="0"/>
</linearGradient>
<linearGradient id="paint1_linear_628_245" x1="886.252" y1="97" x2="8.23021" y2="333.356" gradientUnits="userSpaceOnUse">
<stop offset="0.201261" stop-color="#19F2C8" stop-opacity="0.08"/>
<stop offset="0.576214" stop-color="#19F2C8" stop-opacity="0.19"/>
<stop offset="0.951231" stop-color="#19F2C8" stop-opacity="0"/>
</linearGradient>
</defs>
</svg>
