<svg width="1820" height="331" viewBox="0 0 1820 331" fill="none" xmlns="http://www.w3.org/2000/svg">
<path d="M779.809 0H1108.38V69.7857H976.837V329.843H911.161V69.7857H779.809V0Z" fill="white"/>
<path d="M63.5513 0H0V329.843H63.5513V0Z" fill="white"/>
<path d="M1557.1 260.25H1820V329.843H1557.1L1491.43 260.25V0H1557.1V260.25Z" fill="white"/>
<path d="M1201.3 0.964844L1135.62 70.7505V331.001H1201.3V215.527H1398.52V330.037H1464.2V69.7866L1398.52 0.964844H1201.3ZM1398.52 146.512H1201.3V69.7866H1398.52V146.512Z" fill="white"/>
<path d="M344.596 0L407.955 69.5929V329.843H344.596V69.5929H154.135V329.843H90.7773V69.5929L154.135 0H344.596Z" fill="white"/>
<path d="M752.57 0H435.199V69.5929H752.57V0Z" fill="white"/>
<path d="M752.57 260.056H435.199V329.841H752.57V260.056Z" fill="white"/>
<path d="M435.199 139.381V69.5957L752.57 190.468V260.06L435.199 139.381Z" fill="white"/>
</svg>
