<svg width="165" height="146" viewBox="0 0 165 146" fill="none" xmlns="http://www.w3.org/2000/svg">
<g filter="url(#filter0_d_628_301)">
<rect width="138" height="138" rx="20" transform="matrix(1 0 0.188845 0.982007 0.951172 -0.00109863)" fill="url(#paint0_linear_628_301)"/>
<path d="M42.1802 45.4671L41.8949 43.9838H37.9362L37.6923 42.7155C38.1221 41.5245 38.889 39.7893 39.993 37.5101H42.037L43.0507 42.7817H44.1457L44.3769 43.9838H43.2819L43.5671 45.4671H42.1802ZM39.0375 42.7321L39.0534 42.8148H41.6926L40.8952 38.6681H40.8165C40.1852 39.94 39.5922 41.2947 39.0375 42.7321ZM48.8895 45.6656C48.0547 45.6656 47.3265 45.4414 46.7049 44.9929C46.0834 44.5444 45.6879 43.9673 45.5185 43.2614H46.8773C46.9922 43.6254 47.2154 43.9195 47.5468 44.1437C47.8781 44.368 48.2535 44.4801 48.6727 44.4801C49.1481 44.4801 49.5043 44.3367 49.7411 44.05C49.981 43.7596 50.0554 43.3772 49.9642 42.903C49.873 42.4288 49.6512 42.0446 49.2989 41.7505C48.9497 41.4528 48.5411 41.3039 48.0732 41.3039C47.7437 41.3039 47.4629 41.3719 47.2308 41.5079C47.0024 41.6439 46.8374 41.8369 46.7357 42.0869H45.4217L44.9627 37.5101H49.8424L50.0735 38.7122H46.317L46.5499 40.9455H46.6453C46.9243 40.4492 47.4474 40.2011 48.2148 40.2011C48.9823 40.2011 49.6592 40.451 50.2458 40.951C50.8361 41.4509 51.2061 42.0906 51.356 42.8699C51.5158 43.7007 51.3685 44.3753 50.9141 44.8936C50.4628 45.4083 49.7879 45.6656 48.8895 45.6656ZM54.3272 41.938L54.1151 40.8352H55.1034C55.5152 40.8352 55.829 40.7249 56.0449 40.5043C56.26 40.2801 56.3334 39.9897 56.2648 39.6331C56.1969 39.2802 56.0156 38.999 55.7207 38.7894C55.4289 38.5762 55.0715 38.4696 54.6485 38.4696C54.2292 38.4696 53.9094 38.578 53.689 38.7949C53.4725 39.0118 53.3871 39.3078 53.433 39.6827H52.0797C51.9765 38.9512 52.1388 38.374 52.5666 37.9513C52.9937 37.5248 53.6284 37.3116 54.4707 37.3116C55.2568 37.3116 55.9489 37.5138 56.5471 37.9182C57.1482 38.3189 57.5074 38.8243 57.6248 39.4346C57.7146 39.9015 57.6584 40.3003 57.4562 40.6312C57.2578 40.962 56.9428 41.1734 56.5113 41.2653L56.5293 41.359C57.0954 41.4215 57.5707 41.6256 57.9554 41.9711C58.3437 42.3167 58.5888 42.7541 58.6906 43.2835C58.8221 43.9673 58.6394 44.5352 58.1423 44.9874C57.649 45.4395 56.9625 45.6656 56.0828 45.6656C55.2106 45.6656 54.4573 45.4469 53.8228 45.0094C53.1922 44.572 52.7881 43.9893 52.6107 43.2614H53.9977C54.0983 43.629 54.3177 43.9231 54.6559 44.1437C54.9933 44.3606 55.396 44.469 55.8639 44.469C56.3281 44.469 56.6836 44.3514 56.9304 44.1161C57.1801 43.8772 57.269 43.5702 57.1969 43.1953C57.1219 42.8056 56.9188 42.4986 56.5874 42.2744C56.256 42.0501 55.8414 41.938 55.3435 41.938H54.3272ZM62.0419 45.4671H60.5932L59.063 37.5101H60.5118L61.2159 41.1716H61.3113L63.8023 37.5101H65.4644L63.0711 40.9786L67.236 45.4671H65.4672L62.2312 41.9546L61.5542 42.9306L62.0419 45.4671ZM71.2958 38.6902L71.808 41.3535H73.4813C73.9418 41.3535 74.2751 41.2377 74.4814 41.0061C74.6914 40.7745 74.7558 40.4474 74.6745 40.0246C74.5946 39.6092 74.3991 39.2839 74.0881 39.0486C73.7801 38.8096 73.3959 38.6902 72.9354 38.6902H71.2958ZM72.0254 42.4839L72.599 45.4671H71.1503L69.6201 37.5101H72.9107C73.7604 37.5101 74.4774 37.7344 75.0615 38.1829C75.6449 38.6277 76.0102 39.2324 76.1572 39.997C76.259 40.5264 76.2144 40.9951 76.0233 41.4032C75.8316 41.8075 75.5123 42.0943 75.0657 42.2634L77.4506 45.4671H75.7941L73.6313 42.4839H72.0254ZM83.9645 45.4671L82.8881 43.4324H79.9065L79.6015 45.4671H78.1359L79.4807 37.5101H81.1091L85.5199 45.4671H83.9645ZM80.5079 39.0265L80.027 42.3075H82.3349L80.6034 39.0265H80.5079ZM89.2487 45.4671H87.7999L86.5062 38.7398H84.0131L83.7766 37.5101H90.2173L90.4537 38.7398H87.955L89.2487 45.4671ZM94.4823 45.4671H93.0335L91.5034 37.5101H92.9521L94.4823 45.4671ZM97.6495 45.4671H96.2513L94.7211 37.5101H95.9789L100.995 42.9196H101.09L100.05 37.5101H101.443L102.973 45.4671H101.721L96.7036 40.0522H96.6082L97.6495 45.4671ZM111.142 42.2799C111.341 43.3129 111.179 44.1364 110.657 44.7503C110.134 45.3605 109.332 45.6656 108.25 45.6656C107.075 45.6656 106.075 45.2925 105.25 44.5462C104.424 43.7963 103.887 42.7762 103.639 41.4859C103.395 40.2139 103.542 39.2011 104.083 38.4475C104.622 37.6903 105.468 37.3116 106.621 37.3116C107.557 37.3116 108.388 37.5542 109.114 38.0395C109.84 38.5247 110.346 39.1736 110.634 39.986H109.191C108.958 39.5338 108.64 39.1864 108.238 38.9438C107.839 38.7012 107.382 38.5799 106.865 38.5799C106.158 38.5799 105.646 38.839 105.33 39.3574C105.018 39.8757 104.948 40.5815 105.12 41.4748C105.293 42.3792 105.64 43.0923 106.16 43.6143C106.683 44.1364 107.306 44.3974 108.029 44.3974C108.646 44.3974 109.115 44.2283 109.436 43.8901C109.757 43.5518 109.87 43.1089 109.776 42.5611L109.749 42.3957H107.801L107.587 41.2818H110.95L111.142 42.2799ZM112.423 43.3055H113.839C113.952 43.6621 114.196 43.947 114.57 44.1602C114.943 44.3698 115.387 44.4746 115.899 44.4746C116.379 44.4746 116.751 44.368 117.017 44.1547C117.286 43.9378 117.389 43.6621 117.324 43.3276C117.269 43.0409 117.106 42.8074 116.836 42.6273C116.569 42.4472 116.164 42.2983 115.621 42.1807L114.526 41.9435C113.761 41.7818 113.166 41.5189 112.74 41.155C112.317 40.7874 112.049 40.3077 111.935 39.7158C111.796 38.9916 111.959 38.4108 112.426 37.9733C112.895 37.5322 113.582 37.3116 114.488 37.3116C115.338 37.3116 116.084 37.5285 116.725 37.9623C117.366 38.3961 117.769 38.9548 117.934 39.6386H116.547C116.432 39.2894 116.208 39.0118 115.876 38.806C115.545 38.6001 115.156 38.4972 114.711 38.4972C114.243 38.4972 113.886 38.6001 113.641 38.806C113.4 39.0082 113.311 39.2783 113.376 39.6165C113.428 39.8849 113.58 40.1036 113.834 40.2727C114.086 40.4382 114.474 40.5779 114.998 40.6918L115.97 40.9014C116.825 41.0815 117.47 41.3498 117.905 41.7064C118.344 42.063 118.622 42.5446 118.739 43.1512C118.888 43.9268 118.72 44.5407 118.234 44.9929C117.751 45.4414 117.019 45.6656 116.039 45.6656C115.11 45.6656 114.319 45.4524 113.664 45.026C113.013 44.5995 112.599 44.0261 112.423 43.3055Z" fill="white"/>
<path d="M77.3124 77.1023C76.5497 77.1023 75.8978 76.617 75.7335 75.7626L75.3886 73.9693H69.2763C68.2773 73.9693 67.5023 73.3469 67.3279 72.4397C67.2143 71.8489 67.2908 71.3531 67.5744 70.5936C68.2922 68.6843 69.5529 66.0787 70.896 63.3993C71.6218 61.9224 72.2093 61.4583 73.3479 61.4583C74.7766 61.4583 75.7673 62.1967 76.0107 63.4626L77.6011 71.7329H78.6861C79.4166 71.7329 79.9463 72.197 80.072 72.8511C80.1998 73.5157 79.8466 73.9693 79.1054 73.9693H78.0312L78.3761 75.7626C78.5404 76.617 78.0859 77.1023 77.3124 77.1023ZM75.0137 71.7962L73.4638 63.7368H73.4209C71.6263 67.1969 70.5283 69.4754 69.7036 71.7223L69.7178 71.7962H75.0137ZM84.7488 77.0073C83.8787 77.0073 83.0741 76.3428 82.9098 75.4883C82.7475 74.6444 83.2944 73.9693 84.1646 73.9693C85.0239 73.9693 85.8305 74.6444 85.9928 75.4883C86.1571 76.3428 85.6082 77.0073 84.7488 77.0073ZM95.1511 77.1972C91.5954 77.1972 88.763 75.3723 88.264 72.7772C87.8847 70.8046 89.0233 69.2961 91.0174 68.8847L91.0052 68.8214C89.1328 68.3572 87.7231 67.0597 87.4087 65.4247C86.9583 63.0828 88.905 61.3633 92.1062 61.3633C95.3073 61.3633 97.9026 63.0722 98.357 65.4352C98.6674 67.0492 97.7654 68.3362 96.0755 68.8214L96.0877 68.8847C98.2421 69.3066 99.9716 70.8151 100.349 72.7772C100.85 75.3828 98.696 77.1972 95.1511 77.1972ZM93.374 67.9564C94.9746 67.9564 95.9348 67.0281 95.6792 65.6989C95.4195 64.3487 94.1023 63.4204 92.5017 63.4204C90.8904 63.4204 89.943 64.3592 90.2007 65.6989C90.4563 67.0281 91.7627 67.9564 93.374 67.9564ZM94.7515 75.1191C96.6099 75.1191 97.7155 74.0537 97.4315 72.5768C97.1455 71.0894 95.6321 70.0345 93.7737 70.0345C91.9153 70.0345 90.8096 71.1 91.0936 72.5768C91.3776 74.0537 92.8931 75.1191 94.7515 75.1191Z" fill="white"/>
<path d="M56.9582 100.755C57.0855 100.839 57.2162 100.867 57.3504 100.839C57.4853 100.815 57.624 100.744 57.7664 100.628L60.2131 98.5764L63.4544 100.628C63.6414 100.744 63.8071 100.815 63.9515 100.839C64.0966 100.867 64.2165 100.839 64.3112 100.755C64.4067 100.674 64.452 100.565 64.4471 100.428C64.4458 100.291 64.3929 100.127 64.2883 99.9373L62.5349 96.6565L65.0135 94.6312C65.1595 94.5151 65.2529 94.3956 65.2937 94.2725C65.3345 94.1494 65.3209 94.0228 65.2529 93.8927C65.1856 93.7661 65.0831 93.6712 64.9457 93.6079C64.8082 93.5446 64.6359 93.5147 64.4289 93.5182L60.9149 93.5393L59.2121 90.2428C59.1105 90.0494 59 89.9035 58.8808 89.805C58.7652 89.7066 58.6376 89.6573 58.4979 89.6573C58.3619 89.6573 58.2532 89.7066 58.1719 89.805C58.0941 89.9035 58.0416 90.0494 58.0143 90.2428L57.5794 93.5393L54.0573 93.5182C53.849 93.5147 53.6882 93.5446 53.575 93.6079C53.4619 93.6712 53.396 93.7661 53.3774 93.8927C53.3594 94.0228 53.3945 94.1494 53.4826 94.2725C53.5708 94.3956 53.7101 94.5151 53.9007 94.6312L57.1584 96.6565L56.6667 99.9373C56.6352 100.127 56.6434 100.291 56.6912 100.428C56.7427 100.565 56.8317 100.674 56.9582 100.755Z" fill="#FBCC25"/>
<path d="M71.3042 100.755C71.4314 100.839 71.5622 100.867 71.6964 100.839C71.8313 100.815 71.97 100.744 72.1124 100.628L74.5591 98.5764L77.8004 100.628C77.9874 100.744 78.1531 100.815 78.2975 100.839C78.4425 100.867 78.5624 100.839 78.6572 100.755C78.7527 100.674 78.798 100.565 78.7931 100.428C78.7918 100.291 78.7388 100.127 78.6343 99.9373L76.8808 96.6565L79.3595 94.6312C79.5055 94.5151 79.5989 94.3956 79.6396 94.2725C79.6804 94.1494 79.6668 94.0228 79.5988 93.8927C79.5315 93.7661 79.4291 93.6712 79.2916 93.6079C79.1541 93.5446 78.9819 93.5147 78.7749 93.5182L75.2609 93.5393L73.5581 90.2428C73.4564 90.0494 73.346 89.9035 73.2268 89.805C73.1112 89.7066 72.9836 89.6573 72.8439 89.6573C72.7079 89.6573 72.5992 89.7066 72.5178 89.805C72.4401 89.9035 72.3876 90.0494 72.3603 90.2428L71.9254 93.5393L68.4033 93.5182C68.1949 93.5147 68.0342 93.5446 67.921 93.6079C67.8079 93.6712 67.742 93.7661 67.7234 93.8927C67.7054 94.0228 67.7405 94.1494 67.8286 94.2725C67.9167 94.3956 68.0561 94.5151 68.2467 94.6312L71.5044 96.6565L71.0127 99.9373C70.9812 100.127 70.9894 100.291 71.0372 100.428C71.0886 100.565 71.1776 100.674 71.3042 100.755Z" fill="#FBCC25"/>
<path d="M85.6502 100.755C85.7774 100.839 85.9081 100.867 86.0424 100.839C86.1773 100.815 86.316 100.744 86.4583 100.628L88.9051 98.5764L92.1463 100.628C92.3334 100.744 92.4991 100.815 92.6435 100.839C92.7885 100.867 92.9084 100.839 93.0032 100.755C93.0987 100.674 93.1439 100.565 93.139 100.428C93.1377 100.291 93.0848 100.127 92.9803 99.9373L91.2268 96.6565L93.7055 94.6312C93.8515 94.5151 93.9448 94.3956 93.9856 94.2725C94.0264 94.1494 94.0128 94.0228 93.9448 93.8927C93.8775 93.7661 93.7751 93.6712 93.6376 93.6079C93.5001 93.5446 93.3279 93.5147 93.1209 93.5182L89.6068 93.5393L87.9041 90.2428C87.8024 90.0494 87.692 89.9035 87.5728 89.805C87.4572 89.7066 87.3296 89.6573 87.1899 89.6573C87.0538 89.6573 86.9451 89.7066 86.8638 89.805C86.7861 89.9035 86.7336 90.0494 86.7063 90.2428L86.2714 93.5393L82.7493 93.5182C82.5409 93.5147 82.3802 93.5446 82.267 93.6079C82.1538 93.6712 82.088 93.7661 82.0693 93.8927C82.0514 94.0228 82.0865 94.1494 82.1746 94.2725C82.2627 94.3956 82.4021 94.5151 82.5927 94.6312L85.8503 96.6565L85.3587 99.9373C85.3272 100.127 85.3353 100.291 85.3832 100.428C85.4346 100.565 85.5236 100.674 85.6502 100.755Z" fill="#FBCC25"/>
<path d="M99.9961 100.755C100.123 100.839 100.254 100.867 100.388 100.839C100.523 100.815 100.662 100.744 100.804 100.628L103.251 98.5764L106.492 100.628C106.679 100.744 106.845 100.815 106.989 100.839C107.134 100.867 107.254 100.839 107.349 100.755C107.445 100.674 107.49 100.565 107.485 100.428C107.484 100.291 107.431 100.127 107.326 99.9373L105.573 96.6565L108.051 94.6312C108.197 94.5151 108.291 94.3956 108.332 94.2725C108.372 94.1494 108.359 94.0228 108.291 93.8927C108.223 93.7661 108.121 93.6712 107.984 93.6079C107.846 93.5446 107.674 93.5147 107.467 93.5182L103.953 93.5393L102.25 90.2428C102.148 90.0494 102.038 89.9035 101.919 89.805C101.803 89.7066 101.676 89.6573 101.536 89.6573C101.4 89.6573 101.291 89.7066 101.21 89.805C101.132 89.9035 101.08 90.0494 101.052 90.2428L100.617 93.5393L97.0952 93.5182C96.8869 93.5147 96.7261 93.5446 96.613 93.6079C96.4998 93.6712 96.4339 93.7661 96.4153 93.8927C96.3974 94.0228 96.4324 94.1494 96.5206 94.2725C96.6087 94.3956 96.748 94.5151 96.9387 94.6312L100.196 96.6565L99.7047 99.9373C99.6731 100.127 99.6813 100.291 99.7292 100.428C99.7806 100.565 99.8696 100.674 99.9961 100.755Z" fill="#FBCC25"/>
<path d="M114.342 100.755C114.469 100.839 114.6 100.867 114.734 100.839C114.869 100.815 115.008 100.744 115.15 100.628L117.597 98.5764L120.838 100.628C121.025 100.744 121.191 100.815 121.335 100.839C121.48 100.867 121.6 100.839 121.695 100.755C121.791 100.674 121.836 100.565 121.831 100.428C121.83 100.291 121.777 100.127 121.672 99.9373L119.919 96.6565L122.397 94.6312C122.543 94.5151 122.637 94.3956 122.678 94.2725C122.718 94.1494 122.705 94.0228 122.637 93.8927C122.569 93.7661 122.467 93.6712 122.33 93.6079C122.192 93.5446 122.02 93.5147 121.813 93.5182L118.299 93.5393L116.596 90.2428C116.494 90.0494 116.384 89.9035 116.265 89.805C116.149 89.7066 116.022 89.6573 115.882 89.6573C115.746 89.6573 115.637 89.7066 115.556 89.805C115.478 89.9035 115.426 90.0494 115.398 90.2428L114.963 93.5393L111.441 93.5182C111.233 93.5147 111.072 93.5446 110.959 93.6079C110.846 93.6712 110.78 93.7661 110.761 93.8927C110.743 94.0228 110.778 94.1494 110.867 94.2725C110.955 94.3956 111.094 94.5151 111.285 94.6312L114.542 96.6565L114.051 99.9373C114.019 100.127 114.027 100.291 114.075 100.428C114.127 100.565 114.216 100.674 114.342 100.755Z" fill="#FBCC25"/>
</g>
<defs>
<filter id="filter0_d_628_301" x="-5.01953" y="-0.00109863" width="170" height="145.517" filterUnits="userSpaceOnUse" color-interpolation-filters="sRGB">
<feFlood flood-opacity="0" result="BackgroundImageFix"/>
<feColorMatrix in="SourceAlpha" type="matrix" values="0 0 0 0 0 0 0 0 0 0 0 0 0 0 0 0 0 0 127 0" result="hardAlpha"/>
<feOffset dx="-6" dy="10"/>
<feComposite in2="hardAlpha" operator="out"/>
<feColorMatrix type="matrix" values="0 0 0 0 0.416872 0 0 0 0 0.0721875 0 0 0 0 0.641667 0 0 0 1 0"/>
<feBlend mode="normal" in2="BackgroundImageFix" result="effect1_dropShadow_628_301"/>
<feBlend mode="normal" in="SourceGraphic" in2="effect1_dropShadow_628_301" result="shape"/>
</filter>
<linearGradient id="paint0_linear_628_301" x1="69" y1="0" x2="69" y2="138" gradientUnits="userSpaceOnUse">
<stop stop-color="#B224EF"/>
<stop offset="1" stop-color="#7579FF"/>
</linearGradient>
</defs>
</svg>
