<svg width="197" height="149" viewBox="0 0 197 149" fill="none" xmlns="http://www.w3.org/2000/svg">
<g filter="url(#filter0_d_628_307)">
<rect width="137.941" height="137.991" rx="20" transform="matrix(0.996915 0.0784929 0.37867 0.925532 6.6875 0)" fill="url(#paint0_linear_628_307)"/>
<path d="M56.5144 45.5682C55.7755 45.51 55.0708 45.2752 54.4004 44.8636C53.7285 44.4486 53.2068 43.928 52.835 43.3019L54.2737 43.4151C54.4832 43.7066 54.747 43.9453 55.0651 44.1313C55.3855 44.3141 55.7192 44.4192 56.0663 44.4465C56.6559 44.493 57.0183 44.2884 57.1534 43.833C57.2871 43.3741 57.1782 42.715 56.8266 41.8558L56.7762 41.8518L56.7483 41.8496L56.7315 41.8483C56.6871 42.1902 56.5225 42.4454 56.2376 42.6141C55.9512 42.7794 55.5711 42.8433 55.0971 42.806C54.3284 42.7455 53.5957 42.4598 52.8991 41.9489C52.2062 41.4383 51.7123 40.8227 51.4175 40.102C51.1028 39.3329 51.1247 38.7243 51.4832 38.2764C51.844 37.8253 52.4629 37.6343 53.3399 37.7034C53.9296 37.7498 54.5038 37.9174 55.0626 38.2062C55.6213 38.4949 56.1355 38.8908 56.6049 39.3939C57.2422 40.051 57.7557 40.8559 58.1455 41.8087C58.6615 43.0699 58.7756 44.0328 58.4877 44.6975C58.1984 45.3588 57.5407 45.649 56.5144 45.5682ZM53.6984 41.2674C54.1089 41.5647 54.5455 41.7315 55.0083 41.7679C55.4711 41.8044 55.7976 41.6976 55.9879 41.4477C56.1782 41.1978 56.1876 40.8632 56.0161 40.444C55.8431 40.0213 55.5448 39.6541 55.1211 39.3425C54.6975 39.0308 54.2598 38.8572 53.8083 38.8216C53.3567 38.7861 53.036 38.8983 52.8463 39.1583C52.6551 39.4149 52.6452 39.7527 52.8168 40.172C52.9925 40.6016 53.2864 40.9668 53.6984 41.2674ZM62.9841 45.9016L60.4687 39.7534L60.3735 39.7459L58.8997 40.8974L58.3724 39.6085L59.9215 38.4026L61.3601 38.5159L64.4284 46.0153L62.9841 45.9016ZM69.5825 46.6022C68.657 46.5293 67.8202 46.2673 67.0721 45.8161C66.3264 45.3617 65.821 44.8105 65.5559 44.1626C65.3617 43.688 65.3524 43.2899 65.5278 42.9684C65.7019 42.6434 66.0326 42.4498 66.52 42.3876L66.4839 42.2993C66.015 42.1685 65.589 41.9438 65.2058 41.6253C64.825 41.3036 64.5524 40.9417 64.3879 40.5398C64.1455 39.9474 64.2095 39.4813 64.5798 39.1416C64.95 38.8019 65.5457 38.6644 66.3667 38.729C67.1877 38.7937 67.9375 39.0371 68.6159 39.4594C69.298 39.8819 69.7603 40.3895 70.0027 40.9819C70.1671 41.3838 70.1815 41.7236 70.0459 42.0013C69.9141 42.2793 69.6522 42.4515 69.2604 42.5179L69.2966 42.6062C69.8596 42.7377 70.3714 42.991 70.8317 43.3659C71.2944 43.7376 71.625 44.166 71.8235 44.6511C72.09 45.3024 72.0158 45.8096 71.6009 46.1726C71.1883 46.5324 70.5155 46.6756 69.5825 46.6022ZM69.1607 45.558C69.6458 45.5962 69.9921 45.5111 70.1994 45.3028C70.409 45.0913 70.4373 44.7984 70.2842 44.4243C70.1311 44.0501 69.854 43.7349 69.453 43.4786C69.0544 43.2192 68.6125 43.0704 68.1273 43.0322C67.6384 42.9937 67.2892 43.0802 67.0795 43.2917C66.8722 43.5001 66.8451 43.7913 66.9982 44.1655C67.1513 44.5397 67.4272 44.8565 67.8259 45.1159C68.2269 45.3721 68.6718 45.5195 69.1607 45.558ZM66.5788 41.6177C66.92 41.8424 67.2958 41.9709 67.7063 42.0032C68.1168 42.0355 68.4071 41.9595 68.5773 41.775C68.7497 41.5874 68.7686 41.329 68.6339 40.9999C68.4964 40.6638 68.2564 40.3817 67.9139 40.1535C67.5736 39.9222 67.1982 39.7904 66.7877 39.7581C66.3735 39.7254 66.0808 39.8047 65.9098 39.9957C65.7411 40.1837 65.7255 40.4456 65.863 40.7817C65.9976 41.1109 66.2363 41.3895 66.5788 41.6177ZM75.5855 46.8938L74.1412 46.78L71.073 39.2807L72.5172 39.3944L73.9291 42.8452L74.0243 42.8527L75.7976 39.6527L77.4546 39.7831L75.7412 42.8119L80.7636 47.3015L79.0002 47.1626L75.0931 43.6511L74.6074 44.5031L75.5855 46.8938ZM83.4968 41.3352L84.5238 43.8454L86.192 43.9767C86.651 44.0129 86.9609 43.9317 87.1216 43.7331C87.2861 43.5348 87.2868 43.2364 87.1238 42.838C86.9636 42.4464 86.7057 42.1294 86.35 41.8868C85.9966 41.641 85.5904 41.5 85.1314 41.4639L83.4968 41.3352ZM84.9597 44.9108L86.11 47.7224L84.6657 47.6087L81.5975 40.1093L84.8778 40.3676C85.725 40.4343 86.4832 40.6985 87.1525 41.1603C87.8204 41.6186 88.3017 42.2081 88.5966 42.9288C88.8007 43.4277 88.8471 43.8589 88.7357 44.2223C88.623 44.5823 88.3604 44.8231 87.9479 44.9449L90.9466 48.1032L89.2952 47.9732L86.5607 45.0369L84.9597 44.9108ZM97.4404 48.6145L95.9728 46.643L93.0004 46.409L93.0908 48.2721L91.6298 48.157L91.4276 40.8833L93.051 41.0111L98.991 48.7366L97.4404 48.6145ZM92.7457 42.3702L92.9025 45.3752L95.2032 45.5564L92.8409 42.3777L92.7457 42.3702ZM102.708 49.0293L101.264 48.9156L98.6699 42.5751L96.1844 42.3794L95.7102 41.2205L102.131 41.726L102.605 42.885L100.114 42.6889L102.708 49.0293ZM107.926 49.4401L106.481 49.3264L103.413 41.827L104.857 41.9407L107.926 49.4401ZM111.083 49.6887L109.689 49.5789L106.621 42.0796L107.875 42.1783L113.924 47.5887L114.019 47.5962L111.933 42.4978L113.322 42.6072L116.39 50.1065L115.142 50.0082L109.09 44.5927L108.995 44.5852L111.083 49.6887ZM123.916 47.792C124.315 48.7656 124.313 49.5165 123.912 50.0449C123.509 50.5698 122.768 50.7898 121.69 50.7049C120.518 50.6126 119.448 50.1881 118.481 49.4313C117.513 48.671 116.78 47.6828 116.282 46.4667C115.792 45.2679 115.743 44.3402 116.135 43.6837C116.526 43.0238 117.296 42.739 118.446 42.8295C119.379 42.903 120.254 43.1932 121.072 43.7002C121.89 44.2072 122.521 44.8487 122.965 45.6247L121.526 45.5114C121.206 45.0738 120.822 44.7267 120.374 44.4701C119.93 44.2138 119.45 44.0654 118.935 44.0249C118.23 43.9693 117.77 44.1695 117.555 44.6254C117.345 45.0816 117.412 45.7307 117.756 46.5726C118.105 47.4249 118.589 48.1136 119.208 48.6385C119.831 49.1636 120.503 49.4546 121.223 49.5113C121.839 49.5598 122.274 49.4398 122.528 49.1513C122.782 48.8628 122.809 48.4609 122.609 47.9455L122.55 47.7901L120.608 47.6371L120.178 46.5873L123.531 46.8513L123.916 47.792ZM125.392 48.8437L126.803 48.9548C126.985 49.2944 127.284 49.5778 127.698 49.8049C128.111 50.0285 128.573 50.1604 129.084 50.2007C129.562 50.2383 129.913 50.1687 130.137 49.9918C130.363 49.8118 130.411 49.5641 130.282 49.2489C130.172 48.9786 129.964 48.7493 129.66 48.5611C129.359 48.3731 128.926 48.2032 128.362 48.0515L127.224 47.7456C126.43 47.5356 125.786 47.2451 125.291 46.8742C124.798 46.5001 124.438 46.0341 124.21 45.4763C123.93 44.7937 123.981 44.2679 124.361 43.8988C124.743 43.5265 125.386 43.3759 126.289 43.4471C127.136 43.5138 127.921 43.7734 128.644 44.226C129.368 44.6787 129.878 45.2285 130.175 45.8756L128.793 45.7667C128.609 45.4337 128.333 45.1588 127.962 44.9418C127.592 44.7249 127.184 44.599 126.74 44.564C126.274 44.5273 125.938 44.5947 125.734 44.7664C125.532 44.9349 125.497 45.1786 125.627 45.4973C125.73 45.7503 125.925 45.9651 126.21 46.1418C126.494 46.315 126.908 46.4751 127.452 46.6218L128.462 46.8925C129.349 47.1266 130.044 47.4261 130.547 47.791C131.054 48.1562 131.425 48.6246 131.659 49.1963C131.958 49.9273 131.909 50.4834 131.512 50.8646C131.118 51.2427 130.432 51.3932 129.454 51.3162C128.529 51.2433 127.698 50.9835 126.963 50.5366C126.231 50.09 125.708 49.5257 125.392 48.8437Z" fill="black"/>
<path d="M95.1234 77.3741C92.746 77.1869 90.2587 75.9712 88.8597 74.3504C88.5837 74.0304 88.3653 73.7245 88.2148 73.3566C87.9423 72.6905 88.2319 72.3092 88.9601 72.3665C89.5384 72.4121 89.9772 72.6487 90.482 73.1984C91.4826 74.4029 92.7914 75.1699 94.2799 75.2871C96.1112 75.4313 96.9148 74.3303 96.2192 72.6302C95.5439 70.9798 93.7682 69.7046 91.9476 69.5612C90.9731 69.4845 90.2776 69.7857 89.9082 70.2762C89.5098 70.8222 89.2949 70.9304 88.6631 70.8806C87.7742 70.8106 87.0952 70.1895 86.8318 69.4952C86.8074 69.4355 86.7912 69.3958 86.7775 69.337L85.0532 63.9572C84.6858 62.8314 85.1198 62.423 86.33 62.5182L92.991 63.0427C93.6978 63.0983 94.3291 63.5522 94.5854 64.1785C94.8457 64.8148 94.5561 65.1962 93.8493 65.1405L87.6059 64.6489L88.9359 68.8622L88.9894 68.8664C89.2766 68.0231 90.3232 67.5666 91.876 67.6889C94.8317 67.9216 97.7346 70.0265 98.8573 72.7705C100.086 75.7731 98.5503 77.6439 95.1234 77.3741ZM104.913 77.9717C104.045 77.9034 103.114 77.2239 102.785 76.4186C102.46 75.6232 102.874 75.04 103.741 75.1083C104.598 75.1758 105.533 75.8652 105.858 76.6606C106.188 77.4659 105.77 78.0392 104.913 77.9717ZM115.17 78.9525C111.357 78.6523 107.912 75.6003 106.028 70.997C104.153 66.4136 105.273 63.7307 109.064 64.0292C112.845 64.3268 116.289 67.3499 118.168 71.9432C120.048 76.5366 118.972 79.2518 115.17 78.9525ZM114.312 76.8547C116.4 77.0191 116.779 75.1342 115.388 71.734C114.013 68.3735 111.989 66.2897 109.923 66.127C107.845 65.9634 107.442 67.8657 108.809 71.2063C110.2 74.6065 112.213 76.6894 114.312 76.8547Z" fill="black"/>
<path d="M82.028 97.8305C82.1712 97.9188 82.307 97.9551 82.4353 97.9396C82.5651 97.9273 82.6896 97.873 82.8091 97.7766L84.8505 96.0658L88.4795 98.223C88.6885 98.3453 88.8673 98.4235 89.016 98.4577C89.1661 98.4952 89.2802 98.4785 89.3583 98.4077C89.4378 98.3402 89.4618 98.2426 89.4303 98.1151C89.4024 97.9878 89.318 97.832 89.1769 97.6477L86.7928 94.4675L88.8711 92.7838C88.9941 92.6876 89.064 92.5841 89.0808 92.4731C89.0976 92.3622 89.0595 92.2437 88.9665 92.1177C88.8748 91.9951 88.7544 91.899 88.605 91.8295C88.4557 91.76 88.2781 91.7188 88.0725 91.7058L84.5734 91.4495L82.2367 88.2587C82.0978 88.0713 81.9595 87.9273 81.8215 87.8267C81.6872 87.7263 81.5504 87.6706 81.4112 87.6597C81.2756 87.649 81.1767 87.6861 81.1147 87.771C81.0563 87.8562 81.0323 87.9874 81.0426 88.1647L81.2482 91.1877L77.7329 90.8917C77.5245 90.8721 77.37 90.8872 77.2695 90.937C77.169 90.9868 77.1217 91.0697 77.1276 91.1856C77.135 91.3049 77.1945 91.425 77.3062 91.5461C77.4179 91.6671 77.58 91.7889 77.7926 91.9115L81.4329 94.0455L81.5789 97.0495C81.5842 97.2231 81.6241 97.3754 81.6984 97.5063C81.7763 97.6375 81.8861 97.7456 82.028 97.8305Z" fill="#FBCC25"/>
<path d="M96.3297 98.9566C96.4729 99.0448 96.6087 99.0812 96.737 99.0656C96.8668 99.0534 96.9914 98.9991 97.1108 98.9026L99.1522 97.1919L102.781 99.3491C102.99 99.4714 103.169 99.5496 103.318 99.5838C103.468 99.6212 103.582 99.6046 103.66 99.5337C103.739 99.4662 103.764 99.3687 103.732 99.2411C103.704 99.1138 103.62 98.9581 103.479 98.7738L101.094 95.5936L103.173 93.9098C103.296 93.8137 103.366 93.7101 103.383 93.5992C103.399 93.4883 103.361 93.3698 103.268 93.2438C103.177 93.1211 103.056 93.025 102.907 92.9555C102.757 92.8861 102.58 92.8448 102.374 92.8318L98.8751 92.5756L96.5384 89.3847C96.3995 89.1974 96.2612 89.0534 96.1233 88.9527C95.9889 88.8523 95.8521 88.7967 95.7129 88.7857C95.5773 88.775 95.4784 88.8122 95.4165 88.8971C95.358 88.9823 95.334 89.1135 95.3443 89.2907L95.5499 92.3138L92.0346 92.0177C91.8262 91.9981 91.6717 92.0132 91.5712 92.063C91.4707 92.1129 91.4234 92.1957 91.4294 92.3117C91.4367 92.4309 91.4962 92.5511 91.6079 92.6721C91.7196 92.7932 91.8818 92.915 92.0943 93.0376L95.7346 95.1716L95.8806 98.1755C95.886 98.3491 95.9258 98.5014 96.0001 98.6323C96.078 98.7636 96.1878 98.8716 96.3297 98.9566Z" fill="#FBCC25"/>
<path d="M110.631 100.083C110.775 100.171 110.91 100.207 111.039 100.192C111.168 100.179 111.293 100.125 111.413 100.029L113.454 98.3179L117.083 100.475C117.292 100.597 117.471 100.676 117.619 100.71C117.77 100.747 117.884 100.731 117.962 100.66C118.041 100.592 118.065 100.495 118.034 100.367C118.006 100.24 117.921 100.084 117.78 99.8998L115.396 96.7197L117.474 95.0359C117.598 94.9397 117.667 94.8362 117.684 94.7253C117.701 94.6143 117.663 94.4959 117.57 94.3699C117.478 94.2472 117.358 94.1511 117.208 94.0816C117.059 94.0121 116.882 93.9709 116.676 93.9579L113.177 93.7016L110.84 90.5108C110.701 90.3234 110.563 90.1795 110.425 90.0788C110.291 89.9784 110.154 89.9227 110.015 89.9118C109.879 89.9011 109.78 89.9382 109.718 90.0231C109.66 90.1083 109.636 90.2396 109.646 90.4168L109.852 93.4398L106.336 93.1438C106.128 93.1242 105.973 93.1393 105.873 93.1891C105.772 93.2389 105.725 93.3218 105.731 93.4377C105.738 93.557 105.798 93.6771 105.91 93.7982C106.021 93.9192 106.183 94.041 106.396 94.1636L110.036 96.2976L110.182 99.3016C110.188 99.4752 110.228 99.6275 110.302 99.7584C110.38 99.8896 110.49 99.9977 110.631 100.083Z" fill="#FBCC25"/>
<path d="M124.933 101.209C125.076 101.297 125.212 101.333 125.34 101.318C125.47 101.306 125.595 101.251 125.714 101.155L127.756 99.444L131.385 101.601C131.594 101.723 131.772 101.802 131.921 101.836C132.071 101.873 132.185 101.857 132.263 101.786C132.343 101.718 132.367 101.621 132.335 101.493C132.308 101.366 132.223 101.21 132.082 101.026L129.698 97.8457L131.776 96.1619C131.899 96.0658 131.969 95.9622 131.986 95.8513C132.003 95.7404 131.965 95.6219 131.872 95.4959C131.78 95.3732 131.659 95.2772 131.51 95.2077C131.361 95.1382 131.183 95.0969 130.978 95.0839L127.479 94.8277L125.142 91.6368C125.003 91.4495 124.865 91.3055 124.727 91.2048C124.592 91.1045 124.456 91.0488 124.316 91.0378C124.181 91.0271 124.082 91.0643 124.02 91.1492C123.961 91.2344 123.937 91.3656 123.948 91.5428L124.153 94.5659L120.638 94.2698C120.43 94.2502 120.275 94.2653 120.175 94.3152C120.074 94.365 120.027 94.4478 120.033 94.5638C120.04 94.683 120.1 94.8032 120.211 94.9242C120.323 95.0453 120.485 95.1671 120.698 95.2897L124.338 97.4237L124.484 100.428C124.489 100.601 124.529 100.754 124.604 100.884C124.681 101.016 124.791 101.124 124.933 101.209Z" fill="#FBCC25"/>
<path d="M139.235 102.335C139.378 102.423 139.514 102.459 139.642 102.444C139.772 102.432 139.897 102.377 140.016 102.281L142.057 100.57L145.686 102.727C145.895 102.85 146.074 102.928 146.223 102.962C146.373 102.999 146.487 102.983 146.565 102.912C146.645 102.844 146.669 102.747 146.637 102.619C146.609 102.492 146.525 102.336 146.384 102.152L144 98.9718L146.078 97.288C146.201 97.1918 146.271 97.0883 146.288 96.9774C146.304 96.8664 146.266 96.748 146.173 96.622C146.082 96.4993 145.961 96.4032 145.812 96.3337C145.663 96.2642 145.485 96.223 145.279 96.21L141.78 95.9537L139.444 92.7629C139.305 92.5756 139.166 92.4316 139.028 92.3309C138.894 92.2305 138.757 92.1748 138.618 92.1639C138.482 92.1532 138.384 92.1903 138.322 92.2753C138.263 92.3605 138.239 92.4917 138.249 92.6689L138.455 95.6919L134.94 95.3959C134.731 95.3763 134.577 95.3914 134.476 95.4412C134.376 95.491 134.329 95.5739 134.335 95.6898C134.342 95.8091 134.401 95.9292 134.513 96.0503C134.625 96.1713 134.787 96.2931 134.999 96.4157L138.64 98.5498L138.786 101.554C138.791 101.727 138.831 101.88 138.905 102.011C138.983 102.142 139.093 102.25 139.235 102.335Z" fill="#FBCC25"/>
</g>
<defs>
<filter id="filter0_d_628_307" x="0.6875" y="0" width="195.768" height="148.543" filterUnits="userSpaceOnUse" color-interpolation-filters="sRGB">
<feFlood flood-opacity="0" result="BackgroundImageFix"/>
<feColorMatrix in="SourceAlpha" type="matrix" values="0 0 0 0 0 0 0 0 0 0 0 0 0 0 0 0 0 0 127 0" result="hardAlpha"/>
<feOffset dx="-6" dy="10"/>
<feComposite in2="hardAlpha" operator="out"/>
<feColorMatrix type="matrix" values="0 0 0 0 0.603646 0 0 0 0 0.791667 0 0 0 0 0.786137 0 0 0 1 0"/>
<feBlend mode="normal" in2="BackgroundImageFix" result="effect1_dropShadow_628_307"/>
<feBlend mode="normal" in="SourceGraphic" in2="effect1_dropShadow_628_307" result="shape"/>
</filter>
<linearGradient id="paint0_linear_628_307" x1="68.9703" y1="0" x2="68.9703" y2="137.991" gradientUnits="userSpaceOnUse">
<stop stop-color="#FFFEFF"/>
<stop offset="1" stop-color="#D7FFFE"/>
</linearGradient>
</defs>
</svg>
