<svg width="60" height="60" viewBox="0 0 60 60" fill="none" xmlns="http://www.w3.org/2000/svg">
<path fill-rule="evenodd" clip-rule="evenodd" d="M29.9992 53.6504C28.6737 53.6504 27.5992 52.5759 27.5992 51.2504L27.5992 14.5445L16.5213 25.6224C15.584 26.5597 14.0644 26.5597 13.1272 25.6224C12.1899 24.6852 12.1899 23.1656 13.1272 22.2283L28.3022 7.05333C28.7523 6.60324 29.3627 6.35039 29.9992 6.35039C30.6357 6.35039 31.2462 6.60324 31.6963 7.05333L46.8713 22.2283C47.8085 23.1656 47.8085 24.6852 46.8713 25.6224C45.934 26.5597 44.4144 26.5597 43.4772 25.6224L32.3992 14.5445L32.3992 51.2504C32.3992 52.5759 31.3247 53.6504 29.9992 53.6504Z" fill="url(#paint0_linear_628_557)"/>
<defs>
<linearGradient id="paint0_linear_628_557" x1="46.0728" y1="36.6519" x2="12.7402" y2="35.4893" gradientUnits="userSpaceOnUse">
<stop stop-color="#19F2C8"/>
<stop offset="1" stop-color="#6AE15F"/>
</linearGradient>
</defs>
</svg>
