<svg width="60" height="60" viewBox="0 0 60 60" fill="none" xmlns="http://www.w3.org/2000/svg">
<path fill-rule="evenodd" clip-rule="evenodd" d="M30.0008 6.34961C31.3263 6.34961 32.4008 7.42413 32.4008 8.74961V45.4555L43.4787 34.3776C44.416 33.4403 45.9356 33.4403 46.8728 34.3776C47.8101 35.3148 47.8101 36.8344 46.8728 37.7717L31.6978 52.9467C31.2478 53.3968 30.6373 53.6496 30.0008 53.6496C29.3643 53.6496 28.7538 53.3968 28.3037 52.9467L13.1287 37.7717C12.1915 36.8344 12.1915 35.3148 13.1287 34.3776C14.066 33.4403 15.5856 33.4403 16.5228 34.3776L27.6008 45.4555V8.74961C27.6008 7.42413 28.6753 6.34961 30.0008 6.34961Z" fill="url(#paint0_linear_628_554)"/>
<defs>
<linearGradient id="paint0_linear_628_554" x1="13.9272" y1="23.3481" x2="47.2598" y2="24.5107" gradientUnits="userSpaceOnUse">
<stop stop-color="#19F2C8"/>
<stop offset="1" stop-color="#6AE15F"/>
</linearGradient>
</defs>
</svg>
