<svg width="167" height="45" viewBox="0 0 167 45" fill="none" xmlns="http://www.w3.org/2000/svg">
<g clip-path="url(#clip0_110_936)">
<path d="M49.9086 22.5L61.5385 10.1027L52.0615 0L33.9202 19.3371L15.7789 0L6.2996 10.1027L17.9317 22.5H49.9086Z" fill="white"/>
<path d="M11.6298 22.5L0 34.8973L9.47933 45L27.6183 25.6654L45.7596 45L55.2389 34.8973L43.6091 22.5H11.6298Z" fill="white"/>
<path d="M129.735 13.9457H112.724V17.5611H119.528V31.0543H122.931V17.5611H129.735V13.9457Z" fill="white"/>
<path d="M149.566 13.9457V27.4413L152.969 31.0543H166.576V27.4413H152.969V13.9457H149.566Z" fill="white"/>
<path d="M144.754 13.9432H134.547L131.144 17.5611V31.0665H134.547V25.1223H144.754V31.0665H148.157V17.5611L144.754 13.9432ZM134.547 21.4971V17.5611H144.754V21.4971H134.547Z" fill="white"/>
<path d="M75.645 13.9457H72.3594V31.0567H75.645V13.9457Z" fill="white"/>
<path d="M93.4798 17.5587V31.0543H90.1942V17.5587H80.3395V31.0543H77.0539V17.5587L80.3395 13.9457H90.1942L93.4798 17.5587Z" fill="white"/>
<path d="M111.315 13.9457H94.8889V17.5611H111.315V13.9457Z" fill="white"/>
<path d="M111.315 27.4413L94.8889 21.1742V17.5611L111.315 23.8258V27.4413Z" fill="white"/>
<path d="M111.315 27.4413L94.8889 27.4413V31.0567H111.315V27.4413Z" fill="white"/>
</g>
<defs>
<clipPath id="clip0_110_936">
<rect width="167" height="45" fill="white"/>
</clipPath>
</defs>
</svg>
